<svg id="Слой_1" data-name="Слой 1" xmlns="http://www.w3.org/2000/svg" viewBox="0 0 800 571.95"><defs><style>.cls-1{fill:#dbe6f0;}</style></defs><path class="cls-1" d="M770.79,214.52,687,581.63l13.41,9.17-21.81,94.7L480.5,518.09,325.17,686l-22.46-72.71L447.35,490.18l-11-9.48,46-40.25L614.07,530.9,696,278.14Zm-50-18.44L784.42,151,800,146.48,747.8,114l-66.74,48.82L698.84,174l-5.31,4.27ZM110.45,560l11.6,53.84-12.46,9.35,13.15,59.72L696.39,217,650,184.14ZM304,296.32,52.46,114,0,146.22l16.45,4.68L95.39,498.53l67-45.53L76.87,191.93,294,379.59l65.1-43.8-13.85-9.17,131-89.25-5.58-25.06-5.45,3.51L458,183.23Z" transform="translate(0 -114.02)"/></svg>